<svg width="25" height="9" viewBox="0 0 25 9" fill="none" xmlns="http://www.w3.org/2000/svg">
<path d="M1.83082 0.134472C1.3528 -0.142146 0.741045 0.0211217 0.464428 0.49914C0.18781 0.977158 0.351078 1.58891 0.829096 1.86553L1.83082 0.134472ZM12.5625 7.5L12.0616 8.36553L12.5625 8.65536L13.0634 8.36553L12.5625 7.5ZM24.2959 1.86553C24.7739 1.58891 24.9372 0.977158 24.6606 0.49914C24.3839 0.0211217 23.7722 -0.142146 23.2942 0.134472L24.2959 1.86553ZM0.829096 1.86553L12.0616 8.36553L13.0634 6.63447L1.83082 0.134472L0.829096 1.86553ZM13.0634 8.36553L24.2959 1.86553L23.2942 0.134472L12.0616 6.63447L13.0634 8.36553Z" fill="#4C96D7"/>
</svg>
