<svg width="25" height="26" viewBox="0 0 25 26" fill="none" xmlns="http://www.w3.org/2000/svg">
<g clip-path="url(#clip0)">
<path d="M24.9224 8.03736C24.8642 6.72789 24.6508 5.82942 24.3404 5.04565C24.0204 4.23798 23.5936 3.54979 22.9001 2.8616C22.2066 2.17819 21.5082 1.75763 20.6887 1.44221C19.8933 1.13634 18.9864 0.930842 17.6528 0.868714C16.3191 0.811365 15.8923 0.797028 12.4976 0.797028C9.10281 0.797028 8.67604 0.811365 7.34239 0.873493C6.01358 0.935621 5.10184 1.14112 4.3065 1.44698C3.49176 1.75763 2.7934 2.17819 2.0999 2.86638C1.40155 3.54979 0.974782 4.23798 0.654704 5.04565C0.344326 5.82942 0.13579 6.72311 0.0727449 8.03736C0.014549 9.35161 0 9.7674 0 13.1128C0 16.4581 0.014549 16.8787 0.0775946 18.1929C0.13579 19.5024 0.349176 20.4009 0.659554 21.1847C0.979631 21.9971 1.4064 22.6805 2.0999 23.3687C2.7934 24.0521 3.49176 24.4727 4.31135 24.7881C5.08729 25.0844 5.97478 25.2899 7.25509 25.3568V16.2765H4.08826V12.6635H7.25509V9.99679C7.25509 6.90472 9.17071 5.22247 11.969 5.22247C13.3075 5.22247 14.4617 5.32283 14.7963 5.36585V8.59652H12.8565C11.3337 8.59652 11.0378 9.3086 11.0378 10.3552V12.6635H14.6702L14.195 16.2765H11.0378V25.4381C11.4549 25.4381 11.9302 25.4381 12.4927 25.4381C15.8875 25.4381 16.3143 25.4237 17.6479 25.3664C18.9767 25.3042 19.8885 25.0987 20.6838 24.7929C21.5082 24.4775 22.2017 24.0569 22.8952 23.3735C23.5887 22.6901 24.0155 22.0019 24.3356 21.1894C24.646 20.4057 24.8545 19.512 24.9176 18.1977C24.9806 16.8835 24.9952 16.4629 24.9952 13.1175C25 9.7674 24.9855 9.35161 24.9224 8.03736Z" fill="white"/>
</g>
<defs>
<clipPath id="clip0">
<rect width="25" height="24.6363" fill="white" transform="translate(0 0.797028)"/>
</clipPath>
</defs>
</svg>
