<svg width="26" height="26" viewBox="0 0 26 26" fill="none" xmlns="http://www.w3.org/2000/svg">
<g clip-path="url(#clip0)">
<path d="M12.9975 2.34025C16.4675 2.34025 16.8811 2.35538 18.2479 2.41591C19.5139 2.47139 20.2048 2.68322 20.6638 2.86479C21.2691 3.10184 21.7028 3.38429 22.1567 3.83822C22.6107 4.29214 22.8931 4.7259 23.1302 5.33113C23.3067 5.79011 23.5185 6.47604 23.579 7.74704C23.6396 9.11891 23.6547 9.52745 23.6547 13.0025C23.6547 16.4726 23.6396 16.8861 23.579 18.253C23.5185 19.5189 23.3117 20.2099 23.1302 20.6689C22.8931 21.2741 22.6107 21.7079 22.1567 22.1618C21.7028 22.6157 21.2691 22.8982 20.6638 23.1352C20.2048 23.3117 19.5189 23.5236 18.2479 23.5841C16.876 23.6446 16.4675 23.6597 12.9975 23.6597C9.52745 23.6597 9.11387 23.6446 7.74704 23.5841C6.48109 23.5286 5.79011 23.3168 5.33113 23.1352C4.7259 22.8982 4.29214 22.6157 3.83822 22.1618C3.38429 21.7079 3.10184 21.2741 2.86479 20.6689C2.68826 20.2099 2.47643 19.524 2.41591 18.253C2.35538 16.8811 2.34025 16.4726 2.34025 13.0025C2.34025 9.53249 2.35538 9.11891 2.41591 7.74704C2.47643 6.48109 2.68322 5.79011 2.86479 5.33113C3.10184 4.7259 3.38429 4.29214 3.83822 3.83822C4.29214 3.38429 4.7259 3.10184 5.33113 2.86479C5.79011 2.68826 6.47604 2.47643 7.74704 2.41591C9.11891 2.35538 9.52745 2.34025 12.9975 2.34025ZM12.9975 0C9.46692 0 9.02308 0.0151309 7.63608 0.0806984C6.25412 0.146266 5.30592 0.363143 4.47876 0.685936C3.63143 1.01377 2.90514 1.45761 2.1839 2.1839C1.45761 2.90514 1.01377 3.63143 0.680892 4.4838C0.358099 5.31096 0.141222 6.25412 0.0756547 7.64113C0.0151309 9.02813 0 9.46693 0 12.9975C0 16.528 0.0151309 16.9719 0.0806983 18.3589C0.141222 19.7408 0.363143 20.689 0.685936 21.5162C1.01882 22.3736 1.46266 23.0949 2.1839 23.8211C2.90514 24.5424 3.63143 24.9862 4.4838 25.3191C5.31096 25.6419 6.25412 25.8588 7.64112 25.9243C9.02813 25.9849 9.47197 26 13.0025 26C16.5331 26 16.9769 25.9849 18.3639 25.9243C19.7459 25.8588 20.6941 25.6419 21.5212 25.3191C22.3787 24.9862 23.0999 24.5424 23.8211 23.8211C24.5424 23.0999 24.9862 22.3736 25.3191 21.5162C25.6419 20.689 25.8588 19.7459 25.9243 18.3589C25.9899 16.9719 26.005 16.528 26.005 12.9975C26.005 9.46693 25.9899 9.02309 25.9243 7.63608C25.8638 6.25412 25.6419 5.30592 25.3191 4.47876C24.9862 3.62638 24.5424 2.9001 23.8211 2.17381C23.0999 1.45257 22.3736 1.00873 21.5212 0.675849C20.6941 0.353055 19.7509 0.136178 18.3639 0.0706111C16.9719 0.0151309 16.528 0 12.9975 0Z" fill="white"/>
<path d="M12.9975 6.32474C9.31059 6.32474 6.3197 9.31562 6.3197 13.0025C6.3197 16.6894 9.31059 19.6803 12.9975 19.6803C16.6844 19.6803 19.6753 16.6894 19.6753 13.0025C19.6753 9.31562 16.6844 6.32474 12.9975 6.32474ZM12.9975 17.33C10.6068 17.33 8.665 15.3882 8.665 12.9975C8.665 10.6018 10.6068 8.66499 12.9975 8.66499C15.3882 8.66499 17.33 10.6068 17.33 12.9975C17.33 15.3932 15.3932 17.33 12.9975 17.33Z" fill="white"/>
<path d="M21.496 6.06247C21.496 6.92493 20.8 7.62095 19.9375 7.62095C19.0751 7.62095 18.379 6.92493 18.379 6.06247C18.379 5.2 19.0751 4.50398 19.9375 4.50398C20.8 4.49894 21.496 5.2 21.496 6.06247Z" fill="white"/>
</g>
<defs>
<clipPath id="clip0">
<rect width="26" height="26" fill="white"/>
</clipPath>
</defs>
</svg>
