<svg width="16" height="16" viewBox="0 0 16 16" fill="none" xmlns="http://www.w3.org/2000/svg">
<path fill-rule="evenodd" clip-rule="evenodd" d="M6.54296 0C2.94158 0 0 2.94159 0 6.54297C0 10.1443 2.94158 13.0859 6.54296 13.0859C8.08247 13.0859 9.51203 12.5361 10.6117 11.6564L14.7354 15.7801C15.0103 16.055 15.4777 16.055 15.7801 15.7801C16.055 15.5052 16.055 15.0378 15.7801 14.7354L11.6564 10.6117C12.5636 9.48458 13.0859 8.08246 13.0859 6.51545C13.0859 2.94157 10.1443 0 6.54296 0ZM6.54296 1.45704C9.37457 1.45704 11.6289 3.73884 11.6289 6.54297C11.6289 9.37458 9.34708 11.6289 6.54296 11.6289C3.73883 11.6289 1.45704 9.34709 1.45704 6.54297C1.45704 3.71135 3.73883 1.45704 6.54296 1.45704Z" fill="#4C96D7"/>
</svg>
