<svg width="27" height="26" viewBox="0 0 27 26" fill="none" xmlns="http://www.w3.org/2000/svg">
<g clip-path="url(#clip0)">
<path d="M0 25.4326C0.659634 23.6579 1.21433 22.0016 1.89895 20.3862C2.28373 19.4852 2.23376 18.7616 1.76402 17.8697C-1.9839 10.7619 2.93337 2.24797 11.4736 0.964742C18.7246 -0.122821 25.3859 4.11822 26.7751 10.7073C28.1694 17.3146 22.7773 23.9446 15.4214 24.7C12.7229 24.9776 10.1743 24.5999 7.73071 23.5214C7.45086 23.3986 7.0211 23.4168 6.70627 23.5032C4.51249 24.113 2.3337 24.7546 0 25.4326ZM3.30316 22.4839C4.56247 22.1199 5.68684 21.8196 6.79123 21.4601C7.31594 21.2871 7.72071 21.3053 8.22043 21.5693C10.5541 22.7979 13.0827 23.1892 15.7313 22.7479C21.7379 21.7513 25.8356 16.4045 24.7213 11.0577C23.5519 5.42875 17.6502 1.77473 11.5336 2.88959C3.83787 4.30024 0.149917 12.2044 4.37257 18.2747C4.61743 18.6297 4.65741 18.9255 4.5075 19.3031C4.10272 20.3133 3.73792 21.3327 3.30316 22.4839Z" fill="white"/>
<path d="M9.57469 7.34061C10.1943 7.2314 10.5042 7.51353 10.6991 7.99588C10.9189 8.54649 11.1388 9.10165 11.4437 9.6113C11.8184 10.2347 11.6485 10.7034 11.1738 11.1949C10.4842 11.9047 10.5042 11.9229 11.1038 12.7147C12.0883 14.0207 13.3876 14.9718 14.9817 15.6088C15.3965 15.7772 15.7063 15.7681 15.9811 15.4131C16.206 15.131 16.5058 14.8898 16.7057 14.5941C17.0006 14.1709 17.3404 14.139 17.7951 14.3483C18.5197 14.6805 19.2543 15.0036 19.9939 15.3085C20.3937 15.4723 20.5086 15.7271 20.4536 16.1094C20.2438 17.5928 18.4847 18.7441 16.8257 18.421C12.4981 17.5837 9.52472 15.1811 7.65575 11.6226C6.95614 10.2893 7.13604 8.93328 8.3004 7.82296C8.61022 7.52718 9.10495 7.39067 9.51472 7.1859C9.52971 7.23595 9.5497 7.29056 9.57469 7.34061Z" fill="white"/>
</g>
<defs>
<clipPath id="clip0">
<rect width="27" height="24.6363" fill="white" transform="translate(0 0.797028)"/>
</clipPath>
</defs>
</svg>
