<svg width="220" height="49" viewBox="0 0 220 49" fill="none" xmlns="http://www.w3.org/2000/svg">
<path d="M40.7925 3.91409L15.3912 18.9302L12.8705 15.7385L38.2717 0.722458L40.7925 3.91409Z" fill="#4C96D7"/>
<path d="M35.751 3.91406L61.1546 18.9301L63.6754 15.7385L38.2718 0.722427L35.751 3.91406Z" fill="#4C96D7"/>
<path d="M56.4102 0.722427H50.0787V11.9011H56.4102V0.722427Z" fill="#4C96D7"/>
<path d="M55.757 18.6868L37.661 8.04536L19.5651 18.6868V35.1742H32.6336L32.4756 24.1991H42.7073L42.8653 35.1742H55.757V18.6868Z" fill="#4C96D7"/>
<path d="M101.773 5.47999C101.822 4.56753 101.817 3.65704 101.935 2.75446C102.126 1.30282 103.213 0.39036 104.951 0.212609C105.685 0.137558 106.449 0.139533 107.182 0.212609C108.845 0.37851 110.012 1.25739 110.108 2.64781C110.238 4.53395 110.252 6.43985 110.108 8.32402C109.991 9.84873 108.644 10.7592 106.619 10.9113C105.958 10.9607 105.265 10.9212 104.614 10.8066C103.081 10.538 102.11 9.62556 101.94 8.29044C101.82 7.36021 101.825 6.41812 101.773 5.47999ZM104.628 5.63602C104.628 6.63735 104.607 7.63869 104.638 8.64002C104.652 9.08243 104.874 9.49916 105.442 9.61371C106.517 9.83096 107.361 9.63148 107.475 8.53732C107.498 8.30427 107.524 8.06924 107.524 7.83421C107.529 6.34702 107.531 4.85786 107.522 3.37067C107.519 3.05861 107.496 2.74261 107.437 2.43451C107.305 1.73732 106.847 1.4312 106.01 1.44107C105.173 1.45292 104.687 1.78275 104.642 2.53523C104.581 3.56817 104.628 4.60308 104.628 5.63602Z" fill="white"/>
<path d="M71.5844 0.138199C73.2964 0.2251 74.973 0.2093 76.6072 0.420627C78.5714 0.673429 79.4487 1.68069 79.4487 3.34761C79.4487 3.67546 79.4487 4.00924 79.3897 4.33314C79.2034 5.38385 78.5691 6.16991 77.3051 6.61429C78.1989 8.02248 79.0784 9.40894 80.0028 10.8626C79.1067 10.8626 78.2743 10.8744 77.4466 10.8487C77.3193 10.8448 77.1519 10.6848 77.0835 10.5643C76.4869 9.53732 75.9044 8.50438 75.3267 7.4675C74.9895 6.86117 74.9966 6.85722 74.1052 6.94412C74.1052 8.22196 74.1052 9.50374 74.1052 10.8231C73.2469 10.8231 72.4357 10.8231 71.5844 10.8231C71.5844 7.31345 71.5844 3.79396 71.5844 0.138199ZM74.117 5.69393C74.5533 5.67418 74.9306 5.688 75.2937 5.63665C76.277 5.50038 76.6826 5.1824 76.7934 4.35882C76.8713 3.78804 76.8477 3.20145 76.81 2.62475C76.7793 2.17839 76.5199 1.77944 75.9823 1.65304C75.3904 1.51479 74.7678 1.47134 74.117 1.38049C74.117 2.87953 74.117 4.25217 74.117 5.69393Z" fill="white"/>
<path d="M81.835 0.237885C82.7075 0.237885 83.5281 0.237885 84.4171 0.237885C84.4171 0.439337 84.4171 0.623013 84.4171 0.804715C84.4171 3.12734 84.4148 5.44996 84.4218 7.77259C84.4218 8.10044 84.4478 8.43224 84.502 8.75615C84.6081 9.3921 84.9736 9.65676 85.7376 9.68638C86.5394 9.71798 87.0299 9.43753 87.1761 8.81935C87.2515 8.49939 87.2798 8.16562 87.2798 7.83776C87.2893 5.48354 87.2846 3.12931 87.2846 0.77509C87.2846 0.605238 87.2846 0.437362 87.2846 0.241835C88.1688 0.241835 89.0012 0.241835 89.8266 0.241835C89.8502 0.27936 89.8832 0.30701 89.8832 0.332685C89.8832 2.82714 89.9091 5.32356 89.8619 7.81604C89.8384 9.01487 89.4116 10.1051 87.9448 10.6206C86.5771 11.1005 85.1576 11.0827 83.7828 10.6482C82.4976 10.2414 81.8845 9.32693 81.8562 8.25252C81.7855 5.59414 81.835 2.92984 81.835 0.237885Z" fill="white"/>
<path d="M67.2455 9.96619C65.6916 11.0663 64.1187 11.2559 62.6331 10.5389C61.3998 9.94249 60.9329 8.96485 60.8905 7.85094C60.8339 6.29858 60.8504 4.74226 60.8834 3.18792C60.9188 1.4815 62.1851 0.326114 64.2013 0.209587C65.102 0.158237 66.0476 0.158237 66.9178 0.330064C68.6557 0.671742 69.4386 2.14906 68.7217 3.5217C68.6816 3.6007 68.5401 3.68957 68.4435 3.69155C67.8492 3.70735 67.2526 3.69945 66.6466 3.69945C66.5994 3.27284 66.5853 2.88377 66.5098 2.50259C66.366 1.7896 65.8991 1.44793 65.1233 1.442C64.2484 1.4341 63.8287 1.72048 63.6589 2.46704C63.6023 2.71194 63.5834 2.96474 63.5811 3.21557C63.574 4.80151 63.5764 6.38745 63.5787 7.97142C63.5787 8.17484 63.5858 8.38025 63.6235 8.5817C63.7768 9.35986 64.1564 9.65216 65.0148 9.67784C65.8189 9.70154 66.3919 9.33221 66.59 8.6449C66.6466 8.4474 66.6914 8.242 66.6961 8.04054C66.7126 7.55864 66.7008 7.07476 66.7008 6.5494C66.2504 6.5494 65.8472 6.5494 65.4086 6.5494C65.4086 6.17217 65.4086 5.83642 65.4086 5.47499C66.6749 5.47499 67.9176 5.47499 69.191 5.47499C69.191 7.27029 69.191 9.03793 69.191 10.8609C68.6981 10.8609 68.2147 10.8767 67.736 10.849C67.6228 10.8431 67.4743 10.7048 67.4248 10.6002C67.3375 10.4145 67.3116 10.2071 67.2455 9.96619Z" fill="white"/>
<path d="M92.6681 0.133469C94.3046 0.22432 95.9034 0.222345 97.4668 0.423797C99.3132 0.662774 100.245 1.58906 100.398 3.13945C100.457 3.74381 100.433 4.36989 100.304 4.96634C99.9711 6.49698 98.6765 7.40944 96.7428 7.56744C96.2783 7.60497 95.8114 7.62867 95.2596 7.66619C95.2596 8.71691 95.2596 9.77354 95.2596 10.846C94.3541 10.846 93.5335 10.846 92.6681 10.846C92.6681 7.31662 92.6681 3.79713 92.6681 0.133469ZM95.2667 1.40143C95.2667 3.12167 95.2667 4.74712 95.2667 6.37058C96.5259 6.48513 97.4739 6.08025 97.6035 5.21717C97.7356 4.34224 97.6861 3.44163 97.6554 2.55484C97.6366 2.02159 97.1885 1.70756 96.6037 1.57523C96.1958 1.48241 95.7666 1.46463 95.2667 1.40143Z" fill="white"/>
<path d="M136.757 34.9964C136.757 29.6184 136.757 24.2938 136.757 18.9652C136.79 18.9474 136.83 18.9099 136.866 18.9118C140.478 18.9829 144.093 18.9889 147.699 19.1666C148.967 19.2278 150.248 19.6169 151.448 20.0139C154.169 20.9165 154.325 24.4676 151.861 25.5933C150.955 26.0081 149.967 26.2984 149.18 26.5868C149.656 26.6816 150.368 26.7843 151.052 26.966C153.023 27.4894 154.058 28.5164 154.143 29.972C154.273 32.2334 153.601 33.2801 151.462 34.0602C149.616 34.7337 147.637 34.949 145.659 35.0004C142.839 35.0754 140.014 35.032 137.191 35.0379C137.078 35.0399 136.965 35.0181 136.757 34.9964ZM142.209 33.4282C143.73 33.286 145.18 33.2446 146.576 32.9918C148.055 32.7212 148.571 32.0141 148.559 30.7442C148.557 30.4321 148.552 30.1221 148.543 29.81C148.512 28.8857 147.953 28.2754 146.925 27.9653C145.402 27.5052 143.822 27.5565 142.211 27.594C142.209 29.5019 142.209 31.3624 142.209 33.4282ZM142.169 25.9251C143.607 25.7592 144.954 25.6862 146.249 25.4314C147.522 25.1806 148.012 24.5683 148.034 23.6124C148.069 22.143 147.647 21.5169 146.329 21.1061C144.985 20.6854 143.593 20.7466 142.167 20.7901C142.169 22.453 142.169 24.0785 142.169 25.9251Z" fill="white"/>
<path d="M60.1972 19.3274C64.371 19.5308 68.4647 19.0114 72.5041 19.7243C73.2941 19.8646 74.084 20.0917 74.8032 20.3939C76.7793 21.2214 77.8381 22.6138 77.9937 24.4348C78.1446 26.2004 78.2248 27.97 78.2743 29.7397C78.3569 32.7121 76.4869 34.5034 72.6078 35.1137C71.2402 35.329 69.8347 35.4336 68.4411 35.4731C66.1797 35.5363 63.9136 35.5047 61.6498 35.5146C61.4234 35.5146 61.1971 35.5146 60.8929 35.5146C60.6618 30.1208 60.4307 24.7824 60.1972 19.3274ZM65.8189 21.0832C66.0076 25.3749 66.1891 29.5481 66.3731 33.7865C67.5615 33.7253 68.6368 33.7114 69.698 33.6048C71.5043 33.4211 72.3107 32.716 72.4098 31.1992C72.4758 30.1919 72.4475 29.1748 72.3862 28.1675C72.2824 26.4809 72.1834 24.7883 71.9499 23.1115C71.8132 22.126 70.9595 21.5117 69.7923 21.3695C68.5071 21.2135 67.2008 21.178 65.8189 21.0832Z" fill="white"/>
<path d="M131.529 30.2348C131.489 32.0992 130.468 33.5232 128.45 34.2776C127.219 34.7378 125.844 35.0301 124.502 35.1684C122.227 35.4014 119.939 35.3402 117.732 34.6904C115.355 33.9913 113.844 32.6443 113.693 30.5172C113.528 28.1906 113.483 25.8502 113.558 23.5197C113.622 21.5032 114.973 20.099 117.253 19.4946C118.633 19.1292 120.114 18.9712 121.562 18.8725C123.373 18.75 125.198 18.8053 126.971 19.2418C129.872 19.9568 131.31 21.4637 131.43 23.9878C131.48 25.0207 131.553 29.1841 131.529 30.2348ZM125.636 23.1602C125.618 21.9278 124.948 21.0924 123.774 20.9166C123.094 20.8159 122.375 20.7863 121.691 20.8495C120.036 21.0055 119.371 21.6296 119.319 23.0378C119.286 23.9305 119.322 24.8272 119.34 25.7219C119.38 27.5705 119.409 29.4191 119.484 31.2657C119.529 32.3342 120.14 33.061 121.191 33.223C121.96 33.3415 122.776 33.3849 123.55 33.3099C125.12 33.1578 125.776 32.4764 125.78 31.1532C125.787 29.8516 125.658 24.521 125.636 23.1602Z" fill="white"/>
<path d="M159.006 18.8758C163.088 19.02 167.115 18.5934 171.082 19.3597C171.353 19.413 171.624 19.4723 171.89 19.5434C175.468 20.4796 176.623 22.5454 175.597 25.6186C175.178 26.8806 174.048 27.6706 172.654 28.2019C172.232 28.3619 171.789 28.4843 171.284 28.6482C173.166 30.7615 175.031 32.855 176.979 35.0414C175.277 35.0414 173.699 34.9999 172.129 35.0592C171.348 35.0888 170.916 34.8617 170.516 34.3284C169.339 32.7642 168.077 31.2454 166.896 29.6831C166.547 29.223 166.181 28.9662 165.507 29.0551C165.167 29.1005 164.811 29.063 164.368 29.063C164.368 31.0538 164.368 33.0111 164.368 35.0019C162.536 35.0019 160.798 35.0019 159.008 35.0019C159.006 29.6515 159.006 24.3111 159.006 18.8758ZM164.446 27.2934C165.771 27.1709 167.077 27.1354 168.334 26.9122C169.634 26.6811 170.28 25.8753 170.332 24.7278C170.358 24.1452 170.346 23.5606 170.339 22.976C170.327 22.0299 169.846 21.4414 168.771 21.1175C167.386 20.6988 165.946 20.7245 164.448 20.764C164.446 22.9167 164.446 25.0261 164.446 27.2934Z" fill="white"/>
<path d="M198.089 35.1207C196.205 35.1207 194.389 35.1207 192.495 35.1207C192.21 34.2833 191.939 33.4281 191.616 32.5848C191.559 32.4366 191.3 32.2391 191.13 32.2372C189.102 32.2135 187.074 32.2214 184.992 32.2214C184.707 33.0509 184.44 33.8685 184.131 34.6763C184.068 34.8402 183.839 35.0792 183.681 35.0832C181.959 35.1128 180.238 35.1009 178.359 35.1009C180.677 29.6341 182.95 24.2739 185.218 18.9275C187.23 18.9275 189.187 18.9354 191.146 18.9216C191.642 18.9176 191.682 19.2119 191.793 19.4825C193.571 23.8967 195.349 28.3089 197.124 32.721C197.44 33.5111 197.759 34.2991 198.089 35.1207ZM190.88 30.3076C190.066 27.6433 189.265 25.0125 188.461 22.3818C188.399 22.3838 188.336 22.3858 188.274 22.3877C187.407 25.0145 186.541 27.6413 185.662 30.3056C187.416 30.3076 189.109 30.3076 190.88 30.3076Z" fill="white"/>
<path d="M109.477 24.2661C107.986 24.2661 106.545 24.2661 105.041 24.2661C104.996 23.7921 104.968 23.3339 104.909 22.8757C104.732 21.5011 103.801 20.8197 102.166 20.8572C100.37 20.8967 99.424 21.5682 99.4405 22.9942C99.4712 25.8343 99.5678 28.6743 99.714 31.5105C99.7801 32.7863 100.452 33.2999 101.992 33.4322C102.518 33.4776 103.07 33.4519 103.588 33.367C104.69 33.1873 105.298 32.5177 105.305 31.5757C105.307 31.074 105.305 30.5704 105.305 30.0253C106.944 30.0253 108.59 30.0253 110.236 30.0253C110.731 32.5493 110.118 34.0701 107.34 34.7949C104.053 35.6521 100.712 35.6857 97.455 34.6567C95.1535 33.9299 93.9603 32.4348 93.8353 30.4025C93.7056 28.3248 93.642 26.2411 93.6042 24.1594C93.5571 21.5899 95.1842 19.8875 98.3463 19.2693C100.943 18.7617 103.579 18.7262 106.187 19.2357C109.51 19.8934 110.554 21.4971 109.477 24.2661Z" fill="white"/>
<path d="M82.7358 19.1865C84.6317 19.1865 86.4215 19.1865 88.2868 19.1865C88.4896 24.5368 88.3292 29.897 88.5344 35.3145C86.6903 35.3145 84.8817 35.3145 82.9881 35.3145C82.7853 30.0017 82.9457 24.6474 82.7358 19.1865Z" fill="white"/>
<path d="M3.96158 46.1784C3.53477 46.4767 2.76367 46.6011 2.23782 46.6011C1.43607 46.6011 0.919653 46.5853 0.0589521 46.5675L0 46.5102V40.9426L0.0589521 40.8854C0.919653 40.8597 1.43607 40.8597 2.23782 40.8597C2.76367 40.8597 3.53477 40.9841 3.96158 41.2824C4.85294 41.8966 5.01093 42.7676 5.01093 43.7294C5.01329 44.7011 4.86473 45.5642 3.96158 46.1784ZM2.23782 41.5747C1.8228 41.5747 1.49503 41.5668 1.04935 41.5668V45.8901C1.49503 45.8822 1.8228 45.8901 2.23782 45.8901C3.70455 45.8901 3.92149 44.713 3.92149 43.7334C3.92149 42.736 3.70455 41.5747 2.23782 41.5747Z" fill="white"/>
<path d="M6.9422 44.7848C6.98229 45.474 7.24875 45.9717 8.09058 45.9717C8.58578 45.9717 9.05032 45.8394 9.4677 45.6557C9.63513 45.7881 9.75539 46.029 9.79548 46.2028C9.31914 46.4852 8.62587 46.6669 7.93259 46.6669C6.36683 46.6669 5.89285 45.638 5.89285 44.5181C5.89285 43.2818 6.58613 42.3535 7.96325 42.3535C9.24133 42.3535 9.92517 43.1415 9.92517 44.129C9.92517 44.3937 9.90631 44.5517 9.85679 44.7848H6.9422ZM6.9422 44.1626H8.94421V44.054C8.94421 43.4733 8.66596 42.9914 7.95382 42.9914C7.31949 42.9934 6.99172 43.4319 6.9422 44.1626Z" fill="white"/>
<path d="M10.9934 45.6557C11.4084 45.8473 11.9248 46.0211 12.3799 46.0211C12.9247 46.0211 13.2619 45.8137 13.2713 45.5076C13.2713 45.2746 13.0544 45.0672 12.6464 44.9428L12.0923 44.769C11.399 44.5537 10.8354 44.214 10.8354 43.582C10.8354 42.8196 11.5876 42.3535 12.578 42.3535C13.1133 42.3535 13.7854 42.4937 14.2027 42.6517C14.2027 42.867 14.0848 43.1494 13.8962 43.2818C13.559 43.1494 13.0638 43.0072 12.578 43.0072C12.1418 43.0072 11.8659 43.2067 11.8659 43.4891C11.8659 43.7301 12.064 43.8624 12.479 43.9947L13.0732 44.1863C13.8066 44.4194 14.3301 44.7927 14.3301 45.4306C14.3301 46.2028 13.5472 46.6669 12.4389 46.6669C11.715 46.6669 11.0806 46.4675 10.6562 46.2522C10.6656 46.0626 10.8142 45.7881 10.9934 45.6557Z" fill="white"/>
<path d="M18.8081 46.6195C18.4025 46.5524 18.1455 46.3628 18.0158 46.106C17.6597 46.3964 17.1551 46.6709 16.5207 46.6709C15.5303 46.6709 15.054 46.0409 15.054 45.4523C15.054 44.5063 15.877 44.0757 16.957 44.0757C17.2235 44.0757 17.5819 44.0915 17.9073 44.133V43.8091C17.9073 43.2857 17.6102 43.0704 17.0961 43.0704C16.6009 43.0704 16.0562 43.2205 15.5398 43.3864C15.3724 43.2541 15.2521 42.9796 15.2427 42.7643C15.7968 42.5569 16.6292 42.3831 17.2942 42.3831C18.2752 42.3831 18.9189 42.8235 18.9189 43.7696V45.4701C18.9189 45.7861 18.9684 46.0172 19.1972 46.1831C19.1359 46.3371 18.9755 46.5366 18.8081 46.6195ZM17.9073 45.4898V44.7018C17.6102 44.6761 17.2942 44.6682 17.0159 44.6682C16.4217 44.6682 16.0751 44.9329 16.0751 45.3812C16.0751 45.7209 16.3132 45.9875 16.7377 45.9875C17.115 45.9875 17.5489 45.8216 17.9073 45.4898Z" fill="white"/>
<path d="M20.4611 42.4048C20.9256 42.4878 21.2228 42.7525 21.3619 43.1435C21.5906 42.7208 21.9962 42.4048 22.6588 42.4048C22.8381 42.4048 22.996 42.4206 23.1847 42.4542C23.1847 42.6873 23.1163 43.027 22.9371 43.2679C22.8074 43.2344 22.6706 43.2344 22.5315 43.2265C21.9962 43.2265 21.6802 43.5168 21.4727 43.8565V46.5603C21.3336 46.586 21.145 46.5939 20.9681 46.5939C20.7794 46.5939 20.5908 46.586 20.454 46.5603V43.7143C20.454 43.2739 20.256 42.9934 20.0885 42.8591C20.1333 42.7031 20.2937 42.4957 20.4611 42.4048Z" fill="white"/>
<path d="M24.0478 42.4048C24.5123 42.4878 24.8094 42.7525 24.9486 43.1435C25.1773 42.7208 25.5829 42.4048 26.2455 42.4048C26.4247 42.4048 26.5827 42.4206 26.7713 42.4542C26.7713 42.6873 26.703 43.027 26.5237 43.2679C26.3941 43.2344 26.2573 43.2344 26.1182 43.2265C25.5829 43.2265 25.2669 43.5168 25.0594 43.8565V46.5603C24.9203 46.586 24.7316 46.5939 24.5547 46.5939C24.3661 46.5939 24.1775 46.586 24.0407 46.5603V43.7143C24.0407 43.2739 23.8426 42.9934 23.6752 42.8591C23.72 42.7031 23.878 42.4957 24.0478 42.4048Z" fill="white"/>
<path d="M30.5844 46.2127C30.2189 46.5188 29.7331 46.6689 29.1483 46.6689C28.5635 46.6689 28.0777 46.5188 27.7122 46.2127C27.1864 45.7723 27.0095 45.2015 27.0095 44.5122C27.0095 43.8328 27.1887 43.2521 27.7122 42.8117C28.0777 42.5056 28.5635 42.3555 29.1483 42.3555C29.7331 42.3555 30.2189 42.5056 30.5844 42.8117C31.1102 43.2521 31.2871 43.8328 31.2871 44.5122C31.2871 45.1995 31.1079 45.7723 30.5844 46.2127ZM29.1483 46.0132C29.9996 46.0132 30.2377 45.2824 30.2377 44.5122C30.2377 43.7498 29.9996 43.0112 29.1483 43.0112C28.297 43.0112 28.0683 43.7498 28.0683 44.5122C28.0683 45.2824 28.2947 46.0132 29.1483 46.0132Z" fill="white"/>
<path d="M34.1781 45.9221C34.2276 46.0386 34.2677 46.1966 34.2677 46.3526C34.2677 46.4099 34.2583 46.477 34.2371 46.5343C34.0083 46.5679 33.6617 46.5916 33.3952 46.5916C32.7515 46.5916 32.4142 46.3092 32.4142 45.7364V40.5105L32.4826 40.4611H32.8694C33.2962 40.4611 33.4235 40.627 33.4235 41.0082V45.5468C33.4235 45.7957 33.5414 45.9201 33.8102 45.9201H34.1781V45.9221Z" fill="white"/>
<path d="M36.9229 45.9221C36.9724 46.0386 37.0125 46.1966 37.0125 46.3526C37.0125 46.4099 37.0031 46.477 36.9819 46.5343C36.7531 46.5679 36.4065 46.5916 36.14 46.5916C35.4963 46.5916 35.1591 46.3092 35.1591 45.7364V40.5105L35.2274 40.4611H35.6142C36.041 40.4611 36.1683 40.627 36.1683 41.0082V45.5468C36.1683 45.7957 36.2862 45.9201 36.555 45.9201H36.9229V45.9221Z" fill="white"/>
<path d="M41.1698 46.2127C40.8043 46.5188 40.3186 46.6689 39.7337 46.6689C39.1489 46.6689 38.6632 46.5188 38.2977 46.2127C37.7718 45.7723 37.595 45.2015 37.595 44.5122C37.595 43.8328 37.7742 43.2521 38.2977 42.8117C38.6632 42.5056 39.1489 42.3555 39.7337 42.3555C40.3186 42.3555 40.8043 42.5056 41.1698 42.8117C41.6957 43.2521 41.8725 43.8328 41.8725 44.5122C41.8749 45.1995 41.6957 45.7723 41.1698 46.2127ZM39.7337 46.0132C40.585 46.0132 40.8232 45.2824 40.8232 44.5122C40.8232 43.7498 40.585 43.0112 39.7337 43.0112C38.8825 43.0112 38.6537 43.7498 38.6537 44.5122C38.6537 45.2824 38.8825 46.0132 39.7337 46.0132Z" fill="white"/>
<path d="M45.2988 40.8933C45.4474 40.8676 45.6643 40.8597 45.8247 40.8597C45.9827 40.8597 46.1902 40.8676 46.3505 40.8933V46.5596C46.1925 46.5853 45.985 46.5932 45.8247 46.5932C45.6667 46.5932 45.4474 46.5853 45.2988 46.5596V40.8933Z" fill="white"/>
<path d="M51.8967 45.6814C51.8967 45.9717 51.9368 46.2364 52.0641 46.4359C51.9156 46.5346 51.668 46.6176 51.4204 46.6176C51.0148 46.6176 50.8757 46.426 50.8757 46.0705V43.9631C50.8757 43.4082 50.7365 43.1672 50.2626 43.1672C49.8664 43.1672 49.3618 43.3588 49.0152 43.6807V46.5603C48.876 46.586 48.6874 46.5939 48.5105 46.5939C48.3219 46.5939 48.145 46.586 47.9965 46.5603V42.4779L48.0554 42.4285H48.4421C48.8289 42.4285 48.9869 42.6201 49.0057 42.942C49.4325 42.6181 49.9867 42.3871 50.5809 42.3871C51.5124 42.3871 51.8991 42.9835 51.8991 43.7479V45.6814H51.8967Z" fill="white"/>
<path d="M55.4315 43.1672C55.0943 43.1672 54.6793 43.3746 54.3609 43.6728V46.5603C54.2218 46.586 54.0332 46.5939 53.8563 46.5939C53.6677 46.5939 53.4908 46.586 53.3423 46.5603V42.4858L53.4012 42.4285H53.7879C54.1747 42.4285 54.3327 42.6201 54.3515 42.9519C54.7571 42.6201 55.2523 42.3871 55.7569 42.3871C56.3205 42.3871 56.6978 42.6359 56.8865 43.0013C57.3416 42.6537 57.8957 42.3871 58.4617 42.3871C59.3342 42.3871 59.7397 42.9677 59.7397 43.6906V45.6814C59.7397 45.9717 59.7704 46.2364 59.8977 46.4359C59.7492 46.5346 59.5016 46.6176 59.254 46.6176C58.8578 46.6176 58.7093 46.426 58.7093 46.0705V43.9552C58.7093 43.3746 58.5112 43.1672 58.115 43.1672C57.7778 43.1672 57.3722 43.3667 57.0445 43.6728V43.6807V46.5603C56.9053 46.586 56.7167 46.5939 56.5398 46.5939C56.3512 46.5939 56.1625 46.586 56.0258 46.5603V43.9631C56.0258 43.3825 55.8277 43.1672 55.4315 43.1672Z" fill="white"/>
<path d="M64.4158 46.2127C64.0503 46.5188 63.5646 46.6689 62.9797 46.6689C62.3949 46.6689 61.9092 46.5188 61.5437 46.2127C61.0178 45.7723 60.841 45.2015 60.841 44.5122C60.841 43.8328 61.0202 43.2521 61.5437 42.8117C61.9092 42.5056 62.3949 42.3555 62.9797 42.3555C63.5646 42.3555 64.0503 42.5056 64.4158 42.8117C64.9417 43.2521 65.1185 43.8328 65.1185 44.5122C65.1185 45.1995 64.9393 45.7723 64.4158 46.2127ZM62.9797 46.0132C63.831 46.0132 64.0692 45.2824 64.0692 44.5122C64.0692 43.7498 63.831 43.0112 62.9797 43.0112C62.1285 43.0112 61.8997 43.7498 61.8997 44.5122C61.8997 45.2824 62.1261 46.0132 62.9797 46.0132Z" fill="white"/>
<path d="M68.0685 46.627C67.4342 46.627 66.8211 46.5282 66.2646 46.3524V40.5123L66.3235 40.4629H66.7103C67.1371 40.4629 67.2644 40.6288 67.2644 41.01V42.8191C67.5804 42.596 68.0166 42.3965 68.5708 42.3965C69.7097 42.3965 70.2851 43.2517 70.2851 44.4623C70.2969 45.914 69.2876 46.627 68.0685 46.627ZM67.2668 43.5815V45.8883C67.5144 45.9554 67.7714 45.987 68.078 45.987C68.7618 45.987 69.2476 45.4814 69.2476 44.4683C69.2476 43.5064 68.8514 43.1075 68.3468 43.1075C67.96 43.1095 67.5545 43.2991 67.2668 43.5815Z" fill="white"/>
<path d="M72.596 46.5596C72.4569 46.5853 72.2683 46.5932 72.0914 46.5932C71.9028 46.5932 71.7141 46.5853 71.5773 46.5596V43.524C71.5773 43.2258 71.4689 43.0935 71.1411 43.0935H71.0326C71.002 42.9848 70.9831 42.894 70.9831 42.7873C70.9831 42.6886 71.002 42.5879 71.0326 42.4713C71.2802 42.4457 71.5184 42.4378 71.6575 42.4378H71.7966C72.2918 42.4378 72.5984 42.7202 72.5984 43.1764V46.5596H72.596ZM71.3557 40.9506C71.4736 40.8933 71.7023 40.8518 71.9004 40.8518C72.0796 40.8518 72.3366 40.8933 72.4451 40.9506C72.5041 41.0493 72.5347 41.2073 72.5347 41.3239C72.5347 41.4404 72.5041 41.5885 72.4451 41.6892C72.3461 41.7564 72.0796 41.7979 71.9004 41.7979C71.7023 41.7979 71.4641 41.7564 71.3557 41.6892C71.2967 41.5905 71.2661 41.4404 71.2661 41.3239C71.2684 41.1994 71.2967 41.0513 71.3557 40.9506Z" fill="white"/>
<path d="M75.803 45.9221C75.8526 46.0386 75.8926 46.1966 75.8926 46.3526C75.8926 46.4099 75.8832 46.477 75.862 46.5343C75.6332 46.5679 75.2866 46.5916 75.0202 46.5916C74.3764 46.5916 74.0392 46.3092 74.0392 45.7364V40.5105L74.1076 40.4611H74.4943C74.9211 40.4611 75.0484 40.627 75.0484 41.0082V45.5468C75.0484 45.7957 75.1663 45.9201 75.4352 45.9201H75.803V45.9221Z" fill="white"/>
<path d="M78.0715 46.5596C77.9324 46.5853 77.7438 46.5932 77.5669 46.5932C77.3782 46.5932 77.1896 46.5853 77.0528 46.5596V43.524C77.0528 43.2258 76.9444 43.0935 76.6166 43.0935H76.5081C76.4775 42.9848 76.4586 42.894 76.4586 42.7873C76.4586 42.6886 76.4775 42.5879 76.5081 42.4713C76.7557 42.4457 76.9939 42.4378 77.133 42.4378H77.2721C77.7673 42.4378 78.0739 42.7202 78.0739 43.1764V46.5596H78.0715ZM76.8335 40.9506C76.9514 40.8933 77.1802 40.8518 77.3782 40.8518C77.5575 40.8518 77.8145 40.8933 77.923 40.9506C77.9819 41.0493 78.0126 41.2073 78.0126 41.3239C78.0126 41.4404 77.9819 41.5885 77.923 41.6892C77.8239 41.7564 77.5575 41.7979 77.3782 41.7979C77.1802 41.7979 76.942 41.7564 76.8335 41.6892C76.7746 41.5905 76.7439 41.4404 76.7439 41.3239C76.7439 41.1994 76.7746 41.0513 76.8335 40.9506Z" fill="white"/>
<path d="M82.9457 46.6195C82.5401 46.5524 82.283 46.3628 82.1534 46.106C81.7973 46.3964 81.2926 46.6709 80.6583 46.6709C79.6679 46.6709 79.1916 46.0409 79.1916 45.4523C79.1916 44.5063 80.0146 44.0757 81.0946 44.0757C81.361 44.0757 81.7195 44.0915 82.0449 44.133V43.8091C82.0449 43.2857 81.7478 43.0704 81.2337 43.0704C80.7385 43.0704 80.1938 43.2205 79.6774 43.3864C79.5099 43.2541 79.3897 42.9796 79.3802 42.7643C79.9344 42.5569 80.7668 42.3831 81.4318 42.3831C82.4127 42.3831 83.0565 42.8235 83.0565 43.7696V45.4701C83.0565 45.7861 83.106 46.0172 83.3347 46.1831C83.2711 46.3371 83.1131 46.5366 82.9457 46.6195ZM82.0425 45.4898V44.7018C81.7454 44.6761 81.4294 44.6682 81.1512 44.6682C80.5569 44.6682 80.2103 44.9329 80.2103 45.3812C80.2103 45.7209 80.4485 45.9875 80.8729 45.9875C81.2502 45.9875 81.6865 45.8216 82.0425 45.4898Z" fill="white"/>
<path d="M84.5987 42.4048C85.0632 42.4878 85.3603 42.7525 85.4995 43.1435C85.7282 42.7208 86.1338 42.4048 86.7964 42.4048C86.9756 42.4048 87.1336 42.4206 87.3223 42.4542C87.3223 42.6873 87.2539 43.027 87.0747 43.2679C86.945 43.2344 86.8082 43.2344 86.6691 43.2265C86.1338 43.2265 85.8178 43.5168 85.6103 43.8565V46.5603C85.4712 46.586 85.2825 46.5939 85.1057 46.5939C84.917 46.5939 84.7284 46.586 84.5916 46.5603V43.7143C84.5916 43.2739 84.3935 42.9934 84.2261 42.8591C84.2709 42.7031 84.4289 42.4957 84.5987 42.4048Z" fill="white"/>
<path d="M89.4116 46.5596C89.2724 46.5853 89.0838 46.5932 88.9069 46.5932C88.7183 46.5932 88.5296 46.5853 88.3929 46.5596V43.524C88.3929 43.2258 88.2844 43.0935 87.9566 43.0935H87.8481C87.8175 42.9848 87.7986 42.894 87.7986 42.7873C87.7986 42.6886 87.8175 42.5879 87.8481 42.4713C88.0957 42.4457 88.3339 42.4378 88.473 42.4378H88.6122C89.1074 42.4378 89.4139 42.7202 89.4139 43.1764V46.5596H89.4116ZM88.1736 40.9506C88.2915 40.8933 88.5202 40.8518 88.7183 40.8518C88.8975 40.8518 89.1545 40.8933 89.263 40.9506C89.3219 41.0493 89.3526 41.2073 89.3526 41.3239C89.3526 41.4404 89.3219 41.5885 89.263 41.6892C89.164 41.7564 88.8975 41.7979 88.7183 41.7979C88.5202 41.7979 88.282 41.7564 88.1736 41.6892C88.1146 41.5905 88.0839 41.4404 88.0839 41.3239C88.0839 41.1994 88.1146 41.0513 88.1736 40.9506Z" fill="white"/>
<path d="M94.1159 46.2127C93.7504 46.5188 93.2647 46.6689 92.6799 46.6689C92.0951 46.6689 91.6093 46.5188 91.2438 46.2127C90.7179 45.7723 90.5411 45.2015 90.5411 44.5122C90.5411 43.8328 90.7203 43.2521 91.2438 42.8117C91.6093 42.5056 92.0951 42.3555 92.6799 42.3555C93.2647 42.3555 93.7504 42.5056 94.1159 42.8117C94.6418 43.2521 94.8186 43.8328 94.8186 44.5122C94.8186 45.1995 94.6418 45.7723 94.1159 46.2127ZM92.6799 46.0132C93.5311 46.0132 93.7693 45.2824 93.7693 44.5122C93.7693 43.7498 93.5311 43.0112 92.6799 43.0112C91.8286 43.0112 91.5999 43.7498 91.5999 44.5122C91.5999 45.2824 91.8286 46.0132 92.6799 46.0132Z" fill="white"/>
<path d="M97.2545 46.2463C97.2545 46.9434 96.7688 47.6149 95.7878 47.8974C95.6086 47.8223 95.5095 47.6327 95.5213 47.4668C95.9764 47.3009 96.3137 46.9948 96.3443 46.6373C96.2146 46.6116 96.0378 46.5702 95.9482 46.5208C95.8986 46.4378 95.8585 46.264 95.8585 46.1218C95.8585 45.9816 95.8892 45.7742 95.9482 45.6992C96.0661 45.6419 96.3538 45.5906 96.5518 45.5906C96.7499 45.5906 97.0282 45.632 97.1461 45.6992C97.2168 45.8473 97.2545 46.0468 97.2545 46.2463Z" fill="white"/>
<path d="M103.098 41.5003C102.058 41.5003 101.513 42.2883 101.513 43.7577C101.513 45.1264 102.126 45.8987 103.157 45.8987C103.77 45.8987 104.355 45.6656 104.93 45.2686C105.159 45.393 105.385 45.634 105.456 45.8414C104.911 46.2976 104.001 46.6709 102.98 46.6709C101.089 46.6709 100.405 45.2271 100.405 43.7597C100.405 41.6938 101.662 40.7893 103.119 40.7893C104.595 40.7893 105.505 41.5694 105.505 42.4068C105.505 42.705 105.338 42.9045 104.911 42.9045C104.753 42.9045 104.645 42.8887 104.475 42.8551C104.496 42.2212 104.168 41.5003 103.098 41.5003Z" fill="white"/>
<path d="M109.783 46.2127C109.418 46.5188 108.932 46.6689 108.347 46.6689C107.762 46.6689 107.276 46.5188 106.911 46.2127C106.385 45.7723 106.208 45.2015 106.208 44.5122C106.208 43.8328 106.387 43.2521 106.911 42.8117C107.276 42.5056 107.762 42.3555 108.347 42.3555C108.932 42.3555 109.418 42.5056 109.783 42.8117C110.309 43.2521 110.486 43.8328 110.486 44.5122C110.488 45.1995 110.309 45.7723 109.783 46.2127ZM108.347 46.0132C109.198 46.0132 109.436 45.2824 109.436 44.5122C109.436 43.7498 109.198 43.0112 108.347 43.0112C107.496 43.0112 107.267 43.7498 107.267 44.5122C107.267 45.2824 107.496 46.0132 108.347 46.0132Z" fill="white"/>
<path d="M115.539 45.6814C115.539 45.9717 115.579 46.2364 115.707 46.4359C115.558 46.5346 115.31 46.6176 115.063 46.6176C114.657 46.6176 114.518 46.426 114.518 46.0705V43.9631C114.518 43.4082 114.379 43.1672 113.905 43.1672C113.509 43.1672 113.004 43.3588 112.658 43.6807V46.5603C112.518 46.586 112.33 46.5939 112.153 46.5939C111.964 46.5939 111.787 46.586 111.639 46.5603V42.4779L111.698 42.4285H112.085C112.471 42.4285 112.629 42.6201 112.648 42.942C113.075 42.6181 113.629 42.3871 114.223 42.3871C115.155 42.3871 115.542 42.9835 115.542 43.7479V45.6814H115.539Z" fill="white"/>
<path d="M116.855 45.6557C117.27 45.8473 117.786 46.0211 118.242 46.0211C118.786 46.0211 119.123 45.8137 119.133 45.5076C119.133 45.2746 118.916 45.0672 118.508 44.9428L117.954 44.769C117.261 44.5537 116.697 44.214 116.697 43.582C116.697 42.8196 117.449 42.3535 118.44 42.3535C118.975 42.3535 119.647 42.4937 120.064 42.6517C120.064 42.867 119.946 43.1494 119.758 43.2818C119.421 43.1494 118.925 43.0072 118.44 43.0072C118.003 43.0072 117.725 43.2067 117.725 43.4891C117.725 43.7301 117.923 43.8624 118.338 43.9947L118.932 44.1863C119.666 44.4194 120.189 44.7927 120.189 45.4306C120.189 46.2028 119.406 46.6669 118.298 46.6669C117.574 46.6669 116.942 46.4675 116.515 46.2522C116.527 46.0626 116.676 45.7881 116.855 45.6557Z" fill="white"/>
<path d="M123.719 42.7674C123.719 42.884 123.71 42.9827 123.67 43.0913L122.451 43.0755V45.5562C122.451 45.7794 122.559 45.9216 122.856 45.9216H123.54C123.59 46.0381 123.62 46.204 123.62 46.3521C123.62 46.4094 123.62 46.4765 123.601 46.5338C123.274 46.5674 122.889 46.5911 122.491 46.5911C121.816 46.5911 121.451 46.3087 121.451 45.7359V43.0815L120.718 43.0894C120.687 42.9807 120.677 42.882 120.677 42.7655C120.677 42.6568 120.687 42.566 120.718 42.4495L121.451 42.4653V41.7345C121.451 41.3533 121.569 41.1874 121.996 41.1874H122.382L122.451 41.2447V42.4732L123.67 42.4475C123.708 42.5699 123.719 42.6608 123.719 42.7674Z" fill="white"/>
<path d="M124.769 42.4048C125.233 42.4878 125.533 42.7525 125.669 43.1435C125.898 42.7208 126.304 42.4048 126.966 42.4048C127.146 42.4048 127.304 42.4206 127.492 42.4542C127.492 42.6873 127.424 43.027 127.245 43.2679C127.115 43.2344 126.978 43.2344 126.839 43.2265C126.304 43.2265 125.988 43.5168 125.778 43.8565V46.5603C125.639 46.586 125.45 46.5939 125.273 46.5939C125.085 46.5939 124.896 46.586 124.759 46.5603V43.7143C124.759 43.2739 124.561 42.9934 124.394 42.8591C124.441 42.7031 124.599 42.4957 124.769 42.4048Z" fill="white"/>
<path d="M128.214 43.341C128.214 43.0507 128.174 42.786 128.046 42.5945C128.195 42.4858 128.443 42.4128 128.69 42.4128C129.086 42.4128 129.235 42.5945 129.235 42.9519V45.0672C129.235 45.6221 129.365 45.8631 129.848 45.8631C130.235 45.8631 130.73 45.6715 131.086 45.3575V42.4621C131.225 42.4463 131.414 42.4285 131.6 42.4285C131.779 42.4285 131.966 42.4444 132.114 42.4621V45.399C132.114 45.7229 132.173 46.0211 132.392 46.187C132.333 46.345 132.175 46.5346 132.006 46.6176C131.569 46.5504 131.303 46.3272 131.173 46.0211C130.737 46.3687 130.152 46.6353 129.518 46.6353C128.596 46.6353 128.212 46.0389 128.212 45.2745V43.341H128.214Z" fill="white"/>
<path d="M135.326 43.0171C134.701 43.0171 134.335 43.5227 134.335 44.5359C134.335 45.5313 134.741 45.9638 135.456 45.9638C135.911 45.9638 136.316 45.7644 136.653 45.5491C136.842 45.6399 137.04 45.873 137.09 46.0547C136.644 46.428 136.01 46.6689 135.298 46.6689C133.88 46.6689 133.277 45.6814 133.277 44.5359C133.277 43.0013 134.307 42.3535 135.347 42.3535C136.554 42.3535 137.139 43.0329 137.139 43.6057C137.139 43.896 136.991 44.0777 136.625 44.0777C136.458 44.0777 136.337 44.0698 136.198 44.0441C136.217 43.5069 136.047 43.0171 135.326 43.0171Z" fill="white"/>
<path d="M140.674 42.7674C140.674 42.884 140.665 42.9827 140.624 43.0913L139.405 43.0755V45.5562C139.405 45.7794 139.514 45.9216 139.811 45.9216H140.495C140.544 46.0381 140.575 46.204 140.575 46.3521C140.575 46.4094 140.575 46.4765 140.556 46.5338C140.228 46.5674 139.844 46.5911 139.445 46.5911C138.771 46.5911 138.406 46.3087 138.406 45.7359V43.0815L137.672 43.0894C137.641 42.9807 137.632 42.882 137.632 42.7655C137.632 42.6568 137.641 42.566 137.672 42.4495L138.406 42.4653V41.7345C138.406 41.3533 138.523 41.1874 138.95 41.1874H139.337L139.405 41.2447V42.4732L140.624 42.4475C140.665 42.5699 140.674 42.6608 140.674 42.7674Z" fill="white"/>
<path d="M144.775 46.2127C144.409 46.5188 143.923 46.6689 143.339 46.6689C142.754 46.6689 142.268 46.5188 141.903 46.2127C141.377 45.7723 141.2 45.2015 141.2 44.5122C141.2 43.8328 141.379 43.2521 141.903 42.8117C142.268 42.5056 142.754 42.3555 143.339 42.3555C143.923 42.3555 144.409 42.5056 144.775 42.8117C145.301 43.2521 145.477 43.8328 145.477 44.5122C145.477 45.1995 145.298 45.7723 144.775 46.2127ZM143.339 46.0132C144.19 46.0132 144.428 45.2824 144.428 44.5122C144.428 43.7498 144.19 43.0112 143.339 43.0112C142.487 43.0112 142.259 43.7498 142.259 44.5122C142.259 45.2824 142.485 46.0132 143.339 46.0132Z" fill="white"/>
<path d="M146.725 42.4048C147.189 42.4878 147.489 42.7525 147.626 43.1435C147.854 42.7208 148.26 42.4048 148.923 42.4048C149.102 42.4048 149.26 42.4206 149.448 42.4542C149.448 42.6873 149.38 43.027 149.201 43.2679C149.071 43.2344 148.934 43.2344 148.795 43.2265C148.26 43.2265 147.944 43.5168 147.734 43.8565V46.5603C147.595 46.586 147.406 46.5939 147.229 46.5939C147.041 46.5939 146.852 46.586 146.715 46.5603V43.7143C146.715 43.2739 146.517 42.9934 146.35 42.8591C146.397 42.7031 146.555 42.4957 146.725 42.4048Z" fill="white"/>
<path d="M153.549 46.6195C153.144 46.5524 152.887 46.3628 152.757 46.106C152.401 46.3964 151.896 46.6709 151.262 46.6709C150.271 46.6709 149.795 46.0409 149.795 45.4523C149.795 44.5063 150.618 44.0757 151.698 44.0757C151.965 44.0757 152.323 44.0915 152.648 44.133V43.8091C152.648 43.2857 152.351 43.0704 151.837 43.0704C151.342 43.0704 150.797 43.2205 150.281 43.3864C150.113 43.2541 149.993 42.9796 149.984 42.7643C150.538 42.5569 151.37 42.3831 152.035 42.3831C153.016 42.3831 153.66 42.8235 153.66 43.7696V45.4701C153.66 45.7861 153.709 46.0172 153.938 46.1831C153.875 46.3371 153.717 46.5366 153.549 46.6195ZM152.648 45.4898V44.7018C152.351 44.6761 152.035 44.6682 151.757 44.6682C151.163 44.6682 150.816 44.9329 150.816 45.3812C150.816 45.7209 151.054 45.9875 151.479 45.9875C151.856 45.9875 152.29 45.8216 152.648 45.4898Z" fill="white"/>
<path d="M159.659 46.428C159.223 47.688 158.768 48.3694 157.449 48.3694C157.143 48.3694 156.707 48.3023 156.499 48.2371C156.48 48.0376 156.589 47.7552 156.728 47.6229C156.886 47.6722 157.192 47.7315 157.461 47.7315C158.124 47.7315 158.421 47.3325 158.65 46.7025L158.68 46.6037C158.275 46.5958 158.037 46.4951 157.916 46.1554L156.61 42.5293C156.848 42.4463 157.065 42.4048 157.235 42.4048C157.482 42.4048 157.65 42.4878 157.749 42.786L158.423 44.6939C158.562 45.0751 158.702 45.5985 158.789 45.9145C158.808 45.9638 158.829 45.9717 158.878 45.9717L159.968 42.4621C160.098 42.4364 160.265 42.4285 160.404 42.4285C160.593 42.4285 160.77 42.4443 160.939 42.4858L160.97 42.5352L159.659 46.428Z" fill="white"/>
<path d="M166.165 40.8597C167.62 40.8597 168.325 41.4245 168.325 42.3607C168.325 42.8841 167.948 43.3403 167.393 43.522C168.068 43.6879 168.65 44.2607 168.65 44.9737C168.65 45.894 167.938 46.5912 166.292 46.5912C165.49 46.5912 164.847 46.5754 164.104 46.5655L164.045 46.5083V40.9407L164.104 40.8834C164.828 40.8775 165.512 40.8597 166.165 40.8597ZM165.085 43.2416H166.125C167.056 43.2416 167.264 42.7774 167.264 42.3864C167.264 41.9795 167.075 41.5312 166.144 41.5312C165.865 41.5312 165.401 41.5312 165.083 41.5233V43.2416H165.085ZM165.085 43.921V45.9296C165.5 45.9296 165.917 45.9217 166.283 45.9217C167.353 45.9217 167.57 45.3489 167.57 44.9263C167.57 44.5115 167.283 43.923 166.224 43.923H165.085V43.921Z" fill="white"/>
<path d="M171.008 46.5596C170.869 46.5853 170.681 46.5932 170.504 46.5932C170.315 46.5932 170.126 46.5853 169.99 46.5596V43.524C169.99 43.2258 169.881 43.0935 169.553 43.0935H169.445C169.414 42.9848 169.395 42.894 169.395 42.7873C169.395 42.6886 169.414 42.5879 169.445 42.4713C169.693 42.4457 169.931 42.4378 170.07 42.4378H170.209C170.704 42.4378 171.011 42.7202 171.011 43.1764V46.5596H171.008ZM169.77 40.9506C169.888 40.8933 170.117 40.8518 170.315 40.8518C170.494 40.8518 170.751 40.8933 170.86 40.9506C170.919 41.0493 170.949 41.2073 170.949 41.3239C170.949 41.4404 170.919 41.5885 170.86 41.6892C170.761 41.7564 170.494 41.7979 170.315 41.7979C170.117 41.7979 169.879 41.7564 169.77 41.6892C169.711 41.5905 169.681 41.4404 169.681 41.3239C169.681 41.1994 169.711 41.0513 169.77 40.9506Z" fill="white"/>
<path d="M173.187 44.7848C173.227 45.474 173.494 45.9717 174.336 45.9717C174.831 45.9717 175.298 45.8394 175.713 45.6557C175.88 45.7881 176 46.029 176.041 46.2028C175.564 46.4852 174.871 46.6669 174.178 46.6669C172.612 46.6669 172.138 45.638 172.138 44.5181C172.138 43.2818 172.831 42.3535 174.208 42.3535C175.486 42.3535 176.17 43.1415 176.17 44.129C176.17 44.3937 176.151 44.5517 176.102 44.7848H173.187ZM173.187 44.1626H175.189V44.054C175.189 43.4733 174.911 42.9914 174.199 42.9914C173.565 42.9934 173.237 43.4319 173.187 44.1626Z" fill="white"/>
<path d="M181.268 45.6814C181.268 45.9717 181.309 46.2364 181.436 46.4359C181.287 46.5346 181.04 46.6176 180.792 46.6176C180.387 46.6176 180.247 46.426 180.247 46.0705V43.9631C180.247 43.4082 180.108 43.1672 179.634 43.1672C179.238 43.1672 178.733 43.3588 178.387 43.6807V46.5603C178.248 46.586 178.059 46.5939 177.882 46.5939C177.694 46.5939 177.517 46.586 177.368 46.5603V42.4779L177.427 42.4285H177.814C178.201 42.4285 178.359 42.6201 178.377 42.942C178.804 42.6181 179.358 42.3871 179.953 42.3871C180.884 42.3871 181.271 42.9835 181.271 43.7479V45.6814H181.268Z" fill="white"/>
<path d="M183.428 44.7848C183.469 45.474 183.735 45.9717 184.577 45.9717C185.072 45.9717 185.539 45.8394 185.954 45.6557C186.121 45.7881 186.242 46.029 186.282 46.2028C185.805 46.4852 185.112 46.6669 184.419 46.6669C182.853 46.6669 182.379 45.638 182.379 44.5181C182.379 43.2818 183.072 42.3535 184.45 42.3535C185.728 42.3535 186.411 43.1415 186.411 44.129C186.411 44.3937 186.393 44.5517 186.343 44.7848H183.428ZM183.428 44.1626H185.43V44.054C185.43 43.4733 185.152 42.9914 184.44 42.9914C183.803 42.9934 183.478 43.4319 183.428 44.1626Z" fill="white"/>
<path d="M187.48 45.6557C187.895 45.8473 188.411 46.0211 188.866 46.0211C189.411 46.0211 189.748 45.8137 189.758 45.5076C189.758 45.2746 189.541 45.0672 189.133 44.9428L188.579 44.769C187.885 44.5537 187.322 44.214 187.322 43.582C187.322 42.8196 188.074 42.3535 189.064 42.3535C189.6 42.3535 190.272 42.4937 190.689 42.6517C190.689 42.867 190.571 43.1494 190.382 43.2818C190.045 43.1494 189.55 43.0072 189.064 43.0072C188.628 43.0072 188.35 43.2067 188.35 43.4891C188.35 43.7301 188.548 43.8624 188.963 43.9947L189.557 44.1863C190.29 44.4194 190.814 44.7927 190.814 45.4306C190.814 46.2028 190.031 46.6669 188.923 46.6669C188.199 46.6669 187.567 46.4675 187.14 46.2522C187.152 46.0626 187.3 45.7881 187.48 45.6557Z" fill="white"/>
<path d="M197.303 44.0711C197.631 44.1698 197.867 44.4523 198.006 44.7762L198.442 45.7479C198.541 45.971 198.659 46.1962 198.888 46.3443C198.749 46.5181 198.442 46.6189 198.176 46.6189C197.78 46.6189 197.641 46.4372 197.483 46.0797L196.987 44.9598C196.82 44.5787 196.601 44.2804 195.988 44.2804H195.176V46.5616C195.018 46.5873 194.82 46.5952 194.651 46.5952C194.493 46.5952 194.285 46.5873 194.137 46.5616V40.9446L194.195 40.8874C194.938 40.8795 195.65 40.8617 196.325 40.8617C197.702 40.8617 198.574 41.4581 198.574 42.5622C198.572 43.3245 198.027 43.8795 197.303 44.0711ZM195.174 43.5734C195.561 43.5655 195.997 43.5576 196.273 43.5576C197.244 43.5576 197.48 43.0441 197.48 42.5622C197.48 42.0566 197.242 41.5589 196.273 41.5589C195.985 41.5589 195.511 41.5589 195.174 41.551V43.5734Z" fill="white"/>
<path d="M203.206 46.6195C202.8 46.5524 202.543 46.3628 202.413 46.106C202.057 46.3964 201.553 46.6709 200.918 46.6709C199.928 46.6709 199.452 46.0409 199.452 45.4523C199.452 44.5063 200.275 44.0757 201.355 44.0757C201.621 44.0757 201.98 44.0915 202.305 44.133V43.8091C202.305 43.2857 202.008 43.0704 201.494 43.0704C200.999 43.0704 200.454 43.2205 199.937 43.3864C199.77 43.2541 199.65 42.9796 199.64 42.7643C200.194 42.5569 201.027 42.3831 201.692 42.3831C202.673 42.3831 203.317 42.8235 203.317 43.7696V45.4701C203.317 45.7861 203.366 46.0172 203.595 46.1831C203.534 46.3371 203.376 46.5366 203.206 46.6195ZM202.305 45.4898V44.7018C202.008 44.6761 201.692 44.6682 201.414 44.6682C200.819 44.6682 200.473 44.9329 200.473 45.3812C200.473 45.7209 200.711 45.9875 201.135 45.9875C201.513 45.9875 201.949 45.8216 202.305 45.4898Z" fill="white"/>
<path d="M205.889 46.5603C205.75 46.586 205.561 46.5939 205.385 46.5939C205.196 46.5939 205.007 46.586 204.871 46.5603V43.5247C204.871 43.2264 204.762 43.0941 204.434 43.0941H204.326C204.295 42.9855 204.276 42.8946 204.276 42.788C204.276 42.6892 204.295 42.5885 204.326 42.472C204.573 42.4463 204.812 42.4384 204.951 42.4384H205.09C205.585 42.4384 205.892 42.7208 205.892 43.1771V46.5603H205.889ZM205.87 40.4298C206.167 40.5128 206.483 40.7537 206.594 40.9947L204.901 42.0987C204.713 42.0572 204.524 41.9071 204.446 41.7511L205.87 40.4298Z" fill="white"/>
<path d="M209.07 43.0171C208.445 43.0171 208.08 43.5227 208.08 44.5359C208.08 45.5313 208.485 45.9638 209.2 45.9638C209.655 45.9638 210.061 45.7644 210.398 45.5491C210.587 45.6399 210.785 45.873 210.834 46.0547C210.388 46.428 209.754 46.6689 209.042 46.6689C207.625 46.6689 207.021 45.6814 207.021 44.5359C207.021 43.0013 208.052 42.3535 209.091 42.3535C210.299 42.3535 210.884 43.0329 210.884 43.6057C210.884 43.896 210.735 44.0777 210.37 44.0777C210.202 44.0777 210.082 44.0698 209.943 44.0441C209.962 43.5069 209.792 43.0171 209.07 43.0171Z" fill="white"/>
<path d="M212.614 44.7848C212.655 45.474 212.921 45.9717 213.763 45.9717C214.258 45.9717 214.725 45.8394 215.14 45.6557C215.307 45.7881 215.428 46.029 215.468 46.2028C214.991 46.4852 214.298 46.6669 213.605 46.6669C212.039 46.6669 211.565 45.638 211.565 44.5181C211.565 43.2818 212.258 42.3535 213.636 42.3535C214.914 42.3535 215.597 43.1415 215.597 44.129C215.597 44.3937 215.579 44.5517 215.529 44.7848H212.614ZM212.614 44.1626H214.616V44.054C214.616 43.4733 214.338 42.9914 213.626 42.9914C212.992 42.9934 212.664 43.4319 212.614 44.1626Z" fill="white"/>
<path d="M216.666 45.6557C217.081 45.8473 217.597 46.0211 218.052 46.0211C218.597 46.0211 218.934 45.8137 218.944 45.5076C218.944 45.2746 218.727 45.0672 218.319 44.9428L217.765 44.769C217.071 44.5537 216.508 44.214 216.508 43.582C216.508 42.8196 217.26 42.3535 218.25 42.3535C218.786 42.3535 219.458 42.4937 219.875 42.6517C219.875 42.867 219.757 43.1494 219.568 43.2818C219.231 43.1494 218.736 43.0072 218.25 43.0072C217.814 43.0072 217.536 43.2067 217.536 43.4891C217.536 43.7301 217.734 43.8624 218.149 43.9947L218.743 44.1863C219.476 44.4194 220 44.7927 220 45.4306C220 46.2028 219.217 46.6669 218.109 46.6669C217.385 46.6669 216.753 46.4675 216.326 46.2522C216.338 46.0626 216.486 45.7881 216.666 45.6557Z" fill="white"/>
</svg>
