<svg width="115" height="27" viewBox="0 0 115 27" fill="none" xmlns="http://www.w3.org/2000/svg">
<path d="M18.0315 2.82269L2.44451 14.0297L0.897675 11.6476L16.4847 0.440674L18.0315 2.82269Z" fill="white"/>
<path d="M14.9378 2.82269L30.5263 14.0297L32.0731 11.6476L16.4847 0.440674L14.9378 2.82269Z" fill="white"/>
<path d="M27.6149 0.440674H23.7298V8.78363H27.6149V0.440674Z" fill="white"/>
<path d="M27.2141 13.8468L16.1099 5.90479L5.00568 13.8468V26.1519H13.0249L12.928 17.9608H19.2065L19.3034 26.1519H27.2141V13.8468Z" fill="white"/>
<path d="M55.4507 3.99025C55.4811 3.30925 55.4782 2.62973 55.5506 1.9561C55.6678 0.872696 56.3348 0.191699 57.4013 0.0590368C57.8513 0.00302402 58.3201 0.00449804 58.7701 0.0590368C59.7902 0.182854 60.5065 0.838793 60.5658 1.8765C60.6454 3.28419 60.6541 4.70662 60.5658 6.11284C60.4935 7.25078 59.6672 7.9303 58.4243 8.0438C58.0191 8.08066 57.5937 8.05117 57.1943 7.96568C56.2538 7.76521 55.6576 7.08422 55.5534 6.08778C55.4797 5.39352 55.4825 4.69041 55.4507 3.99025ZM57.203 4.1067C57.203 4.85402 57.19 5.60135 57.2088 6.34868C57.2175 6.67886 57.3535 6.98988 57.7022 7.07537C58.3621 7.23752 58.8801 7.08864 58.9495 6.27203C58.964 6.0981 58.9799 5.92269 58.9799 5.74728C58.9828 4.63734 58.9843 3.52593 58.9785 2.41599C58.977 2.1831 58.9626 1.94726 58.9264 1.71731C58.8453 1.19698 58.5646 0.968507 58.051 0.975877C57.5373 0.984721 57.2392 1.23088 57.2117 1.79248C57.1741 2.5634 57.203 3.33578 57.203 4.1067Z" fill="black"/>
<path d="M36.9263 0.00292969C37.9768 0.0677866 39.0057 0.0559944 40.0084 0.213715C41.2138 0.402389 41.7521 1.15414 41.7521 2.39821C41.7521 2.6429 41.7521 2.89201 41.7159 3.13375C41.6016 3.91793 41.2123 4.50459 40.4367 4.83624C40.9851 5.88722 41.5249 6.92198 42.0921 8.00686C41.5422 8.00686 41.0314 8.01571 40.5236 7.99654C40.4454 7.99359 40.3427 7.8742 40.3007 7.78428C39.9346 7.01779 39.5772 6.24688 39.2227 5.47302C39.0158 5.0205 39.0201 5.01755 38.4732 5.0824C38.4732 6.0361 38.4732 6.99273 38.4732 7.97738C37.9465 7.97738 37.4487 7.97738 36.9263 7.97738C36.9263 5.35805 36.9263 2.73134 36.9263 0.00292969ZM38.4804 4.14935C38.7481 4.13461 38.9796 4.14493 39.2024 4.1066C39.8058 4.0049 40.0547 3.76758 40.1227 3.15291C40.1705 2.72692 40.156 2.28914 40.1329 1.85872C40.1141 1.52559 39.9549 1.22784 39.625 1.1335C39.2618 1.03032 38.8798 0.997894 38.4804 0.930089C38.4804 2.04887 38.4804 3.07331 38.4804 4.14935Z" fill="black"/>
<path d="M43.2164 0.078125C43.7518 0.078125 44.2553 0.078125 44.8008 0.078125C44.8008 0.228475 44.8008 0.365559 44.8008 0.501169C44.8008 2.23462 44.7994 3.96807 44.8037 5.70151C44.8037 5.9462 44.8197 6.19384 44.8529 6.43558C44.9181 6.91021 45.1423 7.10773 45.6112 7.12984C46.1031 7.15342 46.4041 6.94411 46.4938 6.48274C46.5401 6.24395 46.5575 5.99484 46.5575 5.75016C46.5633 3.99312 46.5604 2.23609 46.5604 0.479059C46.5604 0.352293 46.5604 0.227001 46.5604 0.081073C47.103 0.081073 47.6138 0.081073 48.1202 0.081073C48.1347 0.109079 48.155 0.129716 48.155 0.148878C48.155 2.01057 48.1709 3.87373 48.1419 5.73394C48.1275 6.62867 47.8656 7.44233 46.9655 7.82705C46.1263 8.18524 45.2552 8.17197 44.4116 7.84769C43.623 7.54404 43.2468 6.86157 43.2294 6.0597C43.186 4.07567 43.2164 2.08721 43.2164 0.078125Z" fill="black"/>
<path d="M34.2639 7.33912C33.3103 8.16015 32.3451 8.30166 31.4335 7.76659C30.6768 7.32143 30.3903 6.59179 30.3642 5.76045C30.3295 4.60187 30.3396 3.44034 30.3599 2.28028C30.3816 1.00673 31.1586 0.144427 32.3958 0.0574601C32.9485 0.0191356 33.5288 0.0191356 34.0627 0.147375C35.1291 0.402381 35.6095 1.50495 35.1697 2.52939C35.1451 2.58835 35.0582 2.65468 34.9989 2.65616C34.6343 2.66795 34.2682 2.66205 33.8963 2.66205C33.8674 2.34367 33.8587 2.05328 33.8124 1.7688C33.7241 1.23668 33.4376 0.981671 32.9616 0.977249C32.4247 0.971353 32.1672 1.18509 32.063 1.74227C32.0283 1.92504 32.0167 2.11372 32.0152 2.30092C32.0109 3.48456 32.0123 4.6682 32.0138 5.85036C32.0138 6.00218 32.0181 6.15548 32.0413 6.30583C32.1353 6.8866 32.3683 7.10475 32.895 7.12391C33.3884 7.1416 33.74 6.86596 33.8616 6.353C33.8963 6.2056 33.9238 6.0523 33.9267 5.90195C33.9368 5.54229 33.9296 5.18116 33.9296 4.78907C33.6532 4.78907 33.4058 4.78907 33.1366 4.78907C33.1366 4.50753 33.1366 4.25694 33.1366 3.9872C33.9137 3.9872 34.6762 3.9872 35.4576 3.9872C35.4576 5.32708 35.4576 6.64633 35.4576 8.00685C35.1552 8.00685 34.8586 8.01864 34.5648 7.99801C34.4954 7.99359 34.4042 7.8904 34.3738 7.81228C34.3203 7.67372 34.3044 7.51895 34.2639 7.33912Z" fill="black"/>
<path d="M49.8639 0C50.8681 0.0678049 51.8491 0.0663309 52.8085 0.216681C53.9415 0.395037 54.5131 1.08635 54.6071 2.24346C54.6433 2.69451 54.6288 3.16177 54.5492 3.60693C54.3452 4.74929 53.5508 5.43029 52.3643 5.54821C52.0792 5.57622 51.7927 5.59391 51.4541 5.62191C51.4541 6.40609 51.4541 7.19469 51.4541 7.99509C50.8985 7.99509 50.3949 7.99509 49.8639 7.99509C49.8639 5.36101 49.8639 2.73431 49.8639 0ZM51.4584 0.946321C51.4584 2.23019 51.4584 3.44331 51.4584 4.65496C52.2311 4.74045 52.8128 4.43828 52.8924 3.79413C52.9735 3.14114 52.9431 2.46898 52.9243 1.80715C52.9127 1.40916 52.6377 1.17479 52.2789 1.07603C52.0286 1.00676 51.7652 0.99349 51.4584 0.946321Z" fill="black"/>
<path d="M76.9183 26.0194C76.9183 22.0056 76.9183 18.0317 76.9183 14.0547C76.9386 14.0415 76.9632 14.0135 76.9849 14.0149C79.2016 14.068 81.4199 14.0724 83.6323 14.2051C84.4108 14.2508 85.1965 14.5412 85.933 14.8375C87.6029 15.5111 87.6984 18.1614 86.1863 19.0016C85.6306 19.3111 85.0243 19.5278 84.541 19.743C84.8333 19.8137 85.2703 19.8904 85.6899 20.026C86.8996 20.4166 87.5349 21.1831 87.5869 22.2695C87.6665 23.9572 87.2541 24.7384 85.9417 25.3207C84.8087 25.8233 83.5947 25.984 82.3807 26.0223C80.6501 26.0783 78.9166 26.0459 77.1845 26.0503C77.1151 26.0518 77.0456 26.0356 76.9183 26.0194ZM80.2637 24.849C81.197 24.7429 82.0869 24.7119 82.9436 24.5232C83.8508 24.3213 84.1677 23.7936 84.1605 22.8458C84.159 22.6129 84.1561 22.3815 84.1503 22.1486C84.1315 21.4587 83.7886 21.0033 83.1577 20.7719C82.223 20.4284 81.2535 20.4667 80.2652 20.4947C80.2637 21.9186 80.2637 23.3072 80.2637 24.849ZM80.2391 19.2492C81.1218 19.1254 81.948 19.0708 82.7424 18.8807C83.5238 18.6935 83.8248 18.2365 83.8378 17.5231C83.8595 16.4264 83.6005 15.9592 82.7916 15.6526C81.9668 15.3386 81.1131 15.3843 80.2377 15.4167C80.2391 16.6579 80.2391 17.871 80.2391 19.2492Z" fill="black"/>
<path d="M29.9388 14.3259C32.5 14.4778 35.012 14.0901 37.4907 14.6222C37.9754 14.7269 38.4601 14.8964 38.9015 15.1219C40.1141 15.7395 40.7638 16.7787 40.8593 18.1377C40.9519 19.4555 41.0011 20.7762 41.0314 22.097C41.0821 24.3154 39.9346 25.6523 37.5543 26.1078C36.7151 26.2684 35.8527 26.3466 34.9975 26.376C33.6098 26.4232 32.2193 26.3996 30.8302 26.407C30.6912 26.407 30.5523 26.407 30.3657 26.407C30.2239 22.3815 30.0821 18.3972 29.9388 14.3259ZM33.3884 15.6363C33.5042 18.8394 33.6156 21.954 33.7285 25.1172C34.4578 25.0715 35.1176 25.0612 35.7687 24.9816C36.8771 24.8445 37.372 24.3183 37.4328 23.1863C37.4733 22.4345 37.4559 21.6754 37.4183 20.9236C37.3546 19.6648 37.2939 18.4016 37.1506 17.1502C37.0667 16.4146 36.5429 15.9562 35.8266 15.8501C35.038 15.7336 34.2364 15.7071 33.3884 15.6363Z" fill="black"/>
<path d="M73.7103 22.4655C73.6857 23.857 73.0592 24.9197 71.8205 25.4828C71.0652 25.8263 70.2216 26.0444 69.3983 26.1476C68.0019 26.3215 66.5983 26.2758 65.244 25.7909C63.7854 25.2691 62.8579 24.2638 62.7653 22.6763C62.664 20.9399 62.6365 19.1932 62.6828 17.4538C62.7219 15.9489 63.551 14.9008 64.9502 14.4498C65.7967 14.1771 66.7054 14.0592 67.5939 13.9855C68.7052 13.8941 69.8251 13.9353 70.9133 14.2611C72.6931 14.7947 73.5757 15.9194 73.6495 17.8032C73.6799 18.5741 73.7248 21.6813 73.7103 22.4655ZM70.0943 17.1856C70.0827 16.2658 69.6718 15.6423 68.9512 15.5111C68.5344 15.4359 68.0931 15.4138 67.6735 15.461C66.6577 15.5774 66.2496 16.0432 66.2178 17.0942C66.1975 17.7604 66.2192 18.4296 66.2308 19.0974C66.2554 20.477 66.2728 21.8567 66.3191 23.2349C66.3466 24.0324 66.7213 24.5748 67.3667 24.6957C67.8384 24.7841 68.3391 24.8166 68.8137 24.7605C69.7774 24.647 70.1796 24.1385 70.1825 23.1509C70.1869 22.1795 70.1073 18.2012 70.0943 17.1856Z" fill="black"/>
<path d="M90.5707 13.9885C93.0754 14.0961 95.5469 13.7777 97.9807 14.3497C98.1471 14.3895 98.3135 14.4337 98.477 14.4867C100.672 15.1854 101.381 16.7273 100.752 19.0208C100.494 19.9627 99.801 20.5523 98.9459 20.9488C98.6868 21.0682 98.4148 21.1596 98.1052 21.282C99.2599 22.8592 100.404 24.4216 101.6 26.0534C100.555 26.0534 99.5869 26.0224 98.6232 26.0666C98.1442 26.0888 97.8794 25.9192 97.6334 25.5213C96.9114 24.3538 96.1372 23.2203 95.4123 22.0544C95.1982 21.7109 94.9739 21.5193 94.56 21.5856C94.3517 21.6195 94.1332 21.5915 93.8611 21.5915C93.8611 23.0773 93.8611 24.5381 93.8611 26.0239C92.7368 26.0239 91.6704 26.0239 90.5721 26.0239C90.5707 22.0308 90.5707 18.045 90.5707 13.9885ZM93.9089 20.2708C94.7221 20.1794 95.5237 20.1529 96.295 19.9863C97.0923 19.8139 97.4887 19.2125 97.5206 18.356C97.5365 17.9212 97.5292 17.4849 97.5249 17.0486C97.5177 16.3425 97.2225 15.9033 96.5627 15.6615C95.7133 15.349 94.8292 15.3682 93.9103 15.3977C93.9089 17.0044 93.9089 18.5786 93.9089 20.2708Z" fill="black"/>
<path d="M114.553 26.1122C113.397 26.1122 112.283 26.1122 111.121 26.1122C110.946 25.4872 110.779 24.8489 110.581 24.2195C110.546 24.109 110.387 23.9616 110.283 23.9601C109.039 23.9424 107.794 23.9483 106.517 23.9483C106.341 24.5674 106.178 25.1776 105.988 25.7805C105.949 25.9028 105.809 26.0812 105.712 26.0842C104.656 26.1063 103.599 26.0974 102.446 26.0974C103.869 22.0173 105.263 18.0168 106.655 14.0267C107.89 14.0267 109.091 14.0326 110.293 14.0222C110.597 14.0193 110.622 14.2389 110.69 14.4409C111.781 17.7353 112.872 21.0283 113.961 24.3212C114.155 24.9108 114.351 25.499 114.553 26.1122ZM110.13 22.52C109.63 20.5315 109.138 18.5681 108.645 16.6047C108.607 16.6062 108.568 16.6077 108.531 16.6092C107.998 18.5696 107.467 20.53 106.927 22.5185C108.004 22.52 109.043 22.52 110.13 22.52Z" fill="black"/>
<path d="M60.1781 18.0109C59.2636 18.0109 58.3794 18.0109 57.4563 18.0109C57.4288 17.6572 57.4114 17.3152 57.3752 16.9732C57.2667 15.9473 56.6951 15.4388 55.6924 15.4668C54.5898 15.4963 54.0095 15.9974 54.0197 17.0617C54.0385 19.1813 54.0978 21.3009 54.1875 23.4176C54.228 24.3699 54.6404 24.7531 55.5853 24.8519C55.908 24.8858 56.2466 24.8666 56.5649 24.8032C57.2407 24.6691 57.614 24.1694 57.6183 23.4663C57.6198 23.0919 57.6183 22.716 57.6183 22.3092C58.624 22.3092 59.634 22.3092 60.644 22.3092C60.9479 24.193 60.5716 25.328 58.8671 25.8689C56.85 26.5087 54.7996 26.5337 52.8013 25.7658C51.389 25.2233 50.6568 24.1075 50.5802 22.5907C50.5006 21.04 50.4615 19.485 50.4384 17.9313C50.4094 16.0136 51.4078 14.743 53.3483 14.2817C54.9414 13.9028 56.5591 13.8763 58.1595 14.2566C60.1983 14.7474 60.8393 15.9444 60.1781 18.0109Z" fill="black"/>
<path d="M43.7691 14.2197C44.9325 14.2197 46.0308 14.2197 47.1754 14.2197C47.2998 18.2128 47.2014 22.2133 47.3273 26.2566C46.1958 26.2566 45.0859 26.2566 43.924 26.2566C43.7995 22.2915 43.8979 18.2954 43.7691 14.2197Z" fill="black"/>
</svg>
